# xmcd
#
# Track frame offsets:
#	150
#	12232
#	23289
#	35264
#	44843
#	59683
#	72833
#	86576
#	100403
#	111503
#	128148
#	144278
#	156202
#	167834
#	180734
#	192814
#	205312
#	227363
#
# Disc length: 3219 seconds
#
# Revision: 0
# Processed by: cddbd v1.5.2PL0 Copyright (c) Steve Scherf et al.
# Submitted via: audiograbber 1.83.01
#
DISCID=f30c9112
DTITLE=Various Artist - Negro Spirituals disk 2
DYEAR=1999
DGENRE=Gospel
TTITLE0=Elkins-Payne Jubilee Singers - Pickin' On The Harp With The Golden Stri
TTITLE0=ngs
TTITLE1=Fisk University Jubilee Singers - There Is A balm In Gilead
TTITLE2=Fisk University Jubilee Singers - Little David
TTITLE3=Fisk University Jubilee Singers - Blow, Gabriel, Blow
TTITLE4=Hall Negro Quartet - I've Heard Of A City Called Heaven
TTITLE5=Morris Brown Quartet - De Blind Man Stood On The Road And Cried
TTITLE6=New Orleans University Glee Club - Climbing Jacob's Ladder
TTITLE7=Rust College Quartet - Hallelujah
TTITLE8=Southern University Quartet - Let The Church Roll On
TTITLE9=Tuskegee Institute Singers - Live A-Humble
TTITLE10=Tuskegee Institute Singers - My Way's cCoudy - I'm A-Rollin'
TTITLE11=Tuskegee Institute Singers - Heaven Song
TTITLE12=Utica Jubilee Singers - Mary Don't You Weep
TTITLE13=West Virginia Collegiate Singers/Glee Club - I'm So Glad Trouble Don't
TTITLE13=Last Always
TTITLE14=Dixie Jubilee Singers - Joshua Fit The Battle Of Jericho
TTITLE15=Dixie Jubilee Singers - Send One Angel Down
TTITLE16=Hall Johnson Negro Choir - Good News/Standin' In t\\The Need Of Prayer
TTITLE16=/Religion Is A Fortune
TTITLE17=Kenneth Spencer/Hall Johnson Negro Choir - Old Ship Of Zion
EXTD=
EXTT0=
EXTT1=
EXTT2=
EXTT3=
EXTT4=
EXTT5=
EXTT6=
EXTT7=
EXTT8=
EXTT9=
EXTT10=
EXTT11=
EXTT12=
EXTT13=
EXTT14=
EXTT15=
EXTT16=
EXTT17=
PLAYORDER=
